# xmcd
#
# Track frame offsets:
#	150
#	22069
#	35888
#	52658
#	64662
#	79313
#	89818
#	101568
#	113139
#	125870
#	139566
#	157602
#	171196
#
# Disc length: 2543 seconds
# Revision: 0
# Processed by: cddbd v1.5.2PL0 Copyright (c) Steve Scherf et al.
# Submitted via: dBpowerAMP V12.0
#
DISCID=ae09ed0d
DTITLE=Corrina Steel -  Borrowed Tunes
DYEAR=2013
DGENRE=Blues
TTITLE0=Things Ain't Like They Used to be
TTITLE1=Smoke Along The Track
TTITLE2=Damaged
TTITLE3=Different Drum
TTITLE4=Loving Him Was Easier
TTITLE5=There he Goes
TTITLE6=I Don't Wanna Play House
TTITLE7=I Wanna be Your Dog
TTITLE8=Life's Railway to Heaven
TTITLE9=Time of The Preacher
TTITLE10=Vigilante Man
TTITLE11=Wichita Lineman
TTITLE12=Tenterfield Saddler
EXTD=
EXTT0=
EXTT1=
EXTT2=
EXTT3=
EXTT4=
EXTT5=
EXTT6=
EXTT7=
EXTT8=
EXTT9=
EXTT10=
EXTT11=
EXTT12=
PLAYORDER=
